<?xml version="1.0" encoding="UTF-8"?><svg width="1040" height="650" xmlns="http://www.w3.org/2000/svg" xmlns:xlink="http://www.w3.org/1999/xlink"><defs><path d="M16 0h1008c8.837 0 16 7.163 16 16v618c0 8.837-7.163 16-16 16H16c-8.837 0-16-7.163-16-16V16C0 7.163 7.163 0 16 0z" id="a"/></defs><g fill="none" fill-rule="evenodd"><mask id="b" fill="#fff"><use xlink:href="#a"/></mask><use fill="#FF5100" fill-rule="nonzero" xlink:href="#a"/><g mask="url(#b)"><path d="M726.458 366.507s-43.173-47.512-95.599-66.189c33.739-43.15 43.625-105.733 43.625-105.733s-65.478 3.077-113.27 31.283c-13.816-52.552-58.417-99.118-58.417-99.118s-38.011 51.362-45.052 105.032c-50.915-22.177-115.957-17.547-115.957-17.547s17.751 61.27 56.855 100.114C348.859 339.187 312 391.855 312 391.855s59.965 24.277 115.42 18.986c-10.89 52.968 8.126 113.196 8.126 113.196s57.562-30.287 88-75.767c35.957 41.523 96.916 64.735 96.916 64.735s11.295-62.265-6.36-113.593c55.805-1.4 112.356-32.905 112.356-32.905" fill="#FABF0D"/><path d="M561.492 222.099c-23.426 14.392-42.58 35.105-47.57 64.864-8.59-29.081-30.27-47.333-55.423-58.74-3.485 27.644.656 55.873 20.848 78.454-10.368-4.194-20.697-6.036-30.837-6.036-17.038 0-33.55 5.193-48.836 13.133 18.06 18.676 40.706 32.351 68.286 32.351 1.563 0 3.141-.042 4.736-.133-26.188 14.962-38.98 40.424-44.381 67.757 27.432-2.724 53.749-13.01 71.09-37.712-4.56 29.672 7.014 55.367 24.59 76.489 14.93-23.22 23.298-50.265 15.016-79.266 19.296 21.382 45.091 28.696 71.34 28.696 1.26 0 2.521-.016 3.784-.049-8.69-26.302-24.426-49.83-52.057-61.41 29.81-2.043 52.16-19.201 68.736-41.264-12.76-4.732-26.076-7.677-39.443-7.677-13.746 0-27.557 3.114-40.89 10.593 17.133-24.829 17.801-53.194 11.011-80.05" fill="#E76F0A"/></g></g></svg>