<?xml version="1.0" encoding="UTF-8"?>
<svg width="1040px" height="632px" viewBox="0 0 1040 632" version="1.1" xmlns="http://www.w3.org/2000/svg" xmlns:xlink="http://www.w3.org/1999/xlink">
    <!-- Generator: Sketch 52.6 (67491) - http://www.bohemiancoding.com/sketch -->
    <title>Group 2</title>
    <desc>Created with Sketch.</desc>
    <g id="Page-1" stroke="none" stroke-width="1" fill="none" fill-rule="evenodd">
        <g id="Mutti" transform="translate(-1888.000000, -292.000000)">
            <g id="Cards">
                <g id="Image-placeholder" transform="translate(1888.000000, 176.000000)">
                    <g id="Group-2" transform="translate(0.000000, 116.000000)">
                        <path d="M40,-5.1159077e-13 L1000,-5.1159077e-13 C1022.09139,-5.15648892e-13 1040,17.90861 1040,40 L1040,592 C1040,614.09139 1022.09139,632 1000,632 L40,632 C17.90861,632 2.705415e-15,614.09139 0,592 L0,40 C-2.705415e-15,17.90861 17.90861,-5.07532647e-13 40,-5.1159077e-13 Z" id="Image-placeholder" fill="#FFFFFF" fill-rule="nonzero"></path>
                        <g id="Group" transform="translate(266.000000, 193.408451)">
                            <path d="M255.051149,147.542628 C255.051149,147.542628 228.48328,118.304579 196.221018,106.811254 C216.98319,80.2567784 223.067147,41.7446983 223.067147,41.7446983 C223.067147,41.7446983 182.773108,43.6384192 153.363011,60.9959222 C144.86018,28.6562549 117.413804,-2.27373675e-13 117.413804,-2.27373675e-13 C117.413804,-2.27373675e-13 94.022074,31.6076083 89.6891679,64.6350258 C58.3570894,50.9879058 18.3313728,53.8371563 18.3313728,53.8371563 C18.3313728,53.8371563 29.2550662,91.5420451 53.3185954,115.445696 C22.682167,130.730316 8.38440428e-13,163.141263 8.38440428e-13,163.141263 C8.38440428e-13,163.141263 36.9012541,178.081045 71.0278583,174.825309 C64.3257669,207.421197 76.0285884,244.484571 76.0285884,244.484571 C76.0285884,244.484571 111.451089,225.845965 130.181964,197.858196 C152.309598,223.410906 189.823025,237.695688 189.823025,237.695688 C189.823025,237.695688 196.773562,199.378181 185.909496,167.791764 C220.250758,166.930632 255.051149,147.542628 255.051149,147.542628" id="Fill-16" fill="#FABF0D"></path>
                            <path d="M153.533834,58.6762971 C139.117531,67.5326253 127.330467,80.2791909 124.260054,98.5926483 C118.973878,80.6963584 105.631825,69.4647699 90.1531428,62.4447775 C88.0086015,79.4568318 90.5567281,96.8281692 102.982802,110.724441 C96.6025935,108.14359 90.2461257,107.009853 84.006381,107.009853 C73.5210777,107.009853 63.3602253,110.205476 53.9531277,115.091726 C65.0675492,126.584793 79.0031108,135.000001 95.9754537,135.000001 C96.9369362,135.000001 97.9083106,134.974053 98.8895767,134.918165 C82.7738633,144.125792 74.9019724,159.794527 71.5783291,176.614963 C88.4596674,174.938309 104.654515,168.608938 115.325784,153.407272 C112.520471,171.666837 119.642564,187.479285 130.458253,200.477348 C139.645753,186.187862 144.795422,169.54507 139.699169,151.698681 C151.57328,164.856426 167.447634,169.357445 183.600936,169.357445 C184.376453,169.357445 185.151969,169.347465 185.929464,169.327505 C180.58196,153.141801 170.897892,138.662693 153.893895,131.536912 C172.239219,130.279421 185.992772,119.72049 196.193192,106.143581 C188.341084,103.231392 180.146721,101.419009 171.920704,101.419009 C163.46124,101.419009 154.962209,103.335185 146.757954,107.938001 C157.30063,92.6584893 157.712128,75.2033192 153.533834,58.6762971" id="Fill-18" fill="#E76F0A"></path>
                        </g>
                    </g>
                </g>
            </g>
        </g>
    </g>
</svg>